# xmcd
#
# Track frame offsets:
#       150
#       16489
#       33471
#       46410
#       60483
#       76275
#       92471
#       106928
#       121222
#       128794
#       144842
#       157226
#       171344
#
# Disc length: 2408 seconds
#
# Revision: 0
# Processed by: cddbd v1.5.2PL0 Copyright (c) Steve Scherf et al.
# Submitted via: WaveLab 4.01
#
DISCID=a309660d
DTITLE=Walter Bandeira - Walter Bandeira
DYEAR=1900
DGENRE=
TTITLE0=Chanticler
TTITLE1=Condenados
TTITLE2=Futuros Amantes
TTITLE3=Guardados
TTITLE4=Jura Secreta
TTITLE5=La Chanson des Vieux Amants
TTITLE6=Mais Simples
TTITLE7=Ne Me Quitte Pas
TTITLE8=Outra Noite
TTITLE9=Pago Pra Ver
TTITLE10=Se Meu Mundo Cair
TTITLE11=Todo Sentimento
TTITLE12=Violeta de Belfordr Rxo
EXTD=
EXTT0=
EXTT1=
EXTT2=
EXTT3=
EXTT4=
EXTT5=
EXTT6=
EXTT7=
EXTT8=
EXTT9=
EXTT10=
EXTT11=
EXTT12=
PLAYORDER=
